<?xml version="1.0" standalone="no"?>
<!DOCTYPE svg PUBLIC "-//W3C//DTD SVG 20010904//EN"
 "http://www.w3.org/TR/2001/REC-SVG-20010904/DTD/svg10.dtd">
<svg version="1.0" xmlns="http://www.w3.org/2000/svg"
 width="1101.000000pt" height="1101.000000pt" viewBox="0 0 1101.000000 1101.000000"
 preserveAspectRatio="xMidYMid meet">
<metadata>
Created by potrace 1.14, written by Peter Selinger 2001-2017
</metadata>
<g transform="translate(0.000000,1101.000000) scale(0.100000,-0.100000)"
fill="#000000" stroke="none">
<path d="M5410 10871 c-110 -6 -119 -8 -174 -41 -106 -64 -176 -160 -213 -291
-28 -102 -24 -370 10 -627 16 -119 27 -251 27 -320 1 -135 -30 -616 -40 -632
-9 -15 -103 -36 -253 -57 -106 -16 -189 -18 -646 -15 -528 3 -678 -3 -860 -34
-85 -15 -101 -15 -190 0 -342 57 -745 31 -926 -58 -61 -30 -75 -43 -111 -98
-126 -193 -137 -450 -33 -764 54 -163 96 -206 224 -233 33 -7 82 -22 108 -34
44 -18 55 -19 113 -8 35 6 131 32 212 57 174 54 282 65 375 41 51 -13 64 -14
98 -2 123 44 363 58 579 34 99 -11 100 -10 146 15 47 26 49 26 298 30 197 2
255 0 272 -11 11 -7 43 -16 70 -19 27 -3 81 -17 120 -30 91 -30 203 -47 277
-42 l60 4 -6 -145 c-10 -236 -76 -933 -90 -947 -10 -10 -466 89 -564 122 -134
46 -254 55 -409 30 -56 -9 -157 -16 -225 -16 -105 0 -134 -4 -189 -24 -36 -13
-104 -38 -152 -55 -47 -17 -185 -52 -305 -77 -233 -49 -370 -89 -430 -127 -21
-13 -85 -47 -143 -74 -132 -64 -179 -105 -236 -204 -54 -93 -80 -117 -188
-171 -158 -79 -418 -267 -636 -457 -126 -111 -219 -177 -382 -270 -134 -77
-221 -112 -378 -151 -98 -24 -158 -47 -275 -105 -82 -40 -159 -76 -171 -79
-34 -10 -70 -57 -97 -126 -68 -173 -89 -318 -63 -440 26 -124 66 -192 176
-301 96 -96 97 -97 196 -130 91 -30 110 -33 229 -33 126 -1 135 1 295 46 91
26 203 52 250 58 118 16 171 48 389 239 120 105 179 146 271 190 72 33 127 81
136 116 3 13 1 40 -5 60 -15 56 -2 71 82 95 125 37 141 42 192 68 68 33 146
86 224 150 36 29 113 78 171 107 58 30 143 83 190 117 53 40 103 68 133 76 27
7 95 39 152 72 166 96 184 101 385 111 96 4 198 11 227 14 65 8 231 -10 330
-36 42 -10 193 -66 337 -123 143 -57 281 -111 306 -120 l45 -16 0 -327 0 -328
-68 -415 c-37 -228 -80 -500 -95 -605 l-27 -190 -297 2 c-164 1 -344 7 -400
13 -130 14 -297 51 -380 84 -51 21 -89 27 -184 32 -157 9 -284 -6 -584 -66
-249 -50 -380 -70 -457 -70 -37 0 -47 -5 -83 -43 -25 -28 -83 -68 -156 -108
-171 -93 -244 -172 -244 -262 0 -84 47 -157 206 -326 90 -95 123 -138 146
-189 68 -149 119 -192 230 -192 35 0 142 -7 240 -16 l176 -16 94 30 c128 41
261 62 394 62 84 0 114 -4 123 -14 19 -23 79 -48 166 -68 103 -25 102 -25 220
0 55 11 210 30 345 42 135 11 276 27 314 34 l69 13 -7 -66 c-18 -191 -18 -217
-2 -296 29 -139 37 -364 26 -686 -22 -620 24 -853 205 -1035 82 -83 158 -123
290 -155 83 -19 91 -20 131 -4 85 32 155 138 229 345 21 58 51 130 67 161 36
68 46 143 36 259 -20 227 -20 286 -4 395 20 141 61 540 85 831 10 124 23 230
27 234 16 15 251 30 486 31 128 0 267 5 308 10 189 24 375 22 625 -6 132 -15
321 -30 420 -33 99 -2 217 -7 261 -9 56 -3 118 2 197 16 64 12 130 21 147 21
18 0 66 9 108 19 126 32 274 50 507 61 267 13 309 23 374 88 100 100 107 243
22 417 -66 134 -197 270 -314 328 -31 15 -94 32 -148 41 -52 8 -121 25 -154
36 -32 11 -82 24 -110 29 -27 5 -77 17 -110 27 -79 24 -304 24 -470 0 -66 -9
-176 -20 -245 -23 -111 -5 -135 -3 -210 17 -65 18 -105 23 -170 20 -187 -6
-189 -6 -286 43 -135 68 -214 81 -444 74 -102 -3 -282 -17 -400 -31 -118 -14
-225 -26 -237 -26 l-21 0 5 218 c4 140 -1 338 -12 562 -17 339 -16 508 5 699
5 46 11 86 14 88 2 2 138 -63 303 -145 164 -83 328 -162 363 -177 36 -14 119
-53 185 -86 217 -108 351 -125 706 -90 153 15 284 21 446 21 338 -1 366 6 765
206 128 64 282 133 343 154 319 110 458 199 586 371 42 57 73 85 171 151 179
121 415 299 583 439 282 236 740 640 769 679 32 43 38 108 16 176 -19 58 -150
324 -177 361 -53 69 -132 85 -299 61 -62 -9 -95 -9 -132 0 -65 15 -101 4 -182
-53 -35 -25 -70 -45 -78 -45 -59 0 -157 -87 -313 -280 -153 -190 -207 -226
-416 -280 -284 -74 -358 -105 -462 -195 -64 -55 -105 -77 -186 -100 -44 -13
-73 -30 -110 -64 -102 -96 -200 -152 -394 -225 -69 -26 -163 -65 -210 -86
-271 -121 -534 -142 -766 -60 -33 11 -103 25 -155 30 -219 21 -447 108 -725
274 -116 70 -196 100 -360 135 -54 12 -101 23 -102 25 -2 1 4 50 11 107 44
310 123 1086 150 1473 9 115 18 212 22 215 15 15 372 13 494 -3 69 -9 251 -21
405 -26 154 -6 377 -18 495 -26 274 -20 502 -21 595 -1 39 8 187 55 330 105
289 100 424 136 571 156 109 14 160 34 205 79 42 42 60 82 66 146 7 77 -15
158 -81 294 -63 131 -113 209 -184 290 -28 31 -70 94 -93 139 -50 96 -94 143
-146 157 -55 16 -78 14 -183 -13 -137 -35 -186 -39 -309 -26 -92 10 -126 9
-208 -4 -226 -36 -498 -58 -788 -66 -221 -6 -318 -12 -370 -25 -156 -36 -207
-45 -375 -60 -96 -9 -193 -20 -215 -25 -22 -5 -70 -10 -106 -10 l-66 0 -6 398
c-8 463 -45 1071 -77 1240 -11 63 -52 115 -114 146 -30 15 -62 36 -72 47 -15
17 -30 19 -158 17 -78 -1 -193 -4 -256 -7z"/>
</g>
</svg>
