<?xml version="1.0" standalone="no"?>
<svg xmlns="http://www.w3.org/2000/svg" width="300" height="300"><defs><clipPath id="clip-path-dot-color"><rect x="2" y="66" width="8" height="8" transform="rotate(0,6,70)"/><rect x="2" y="82" width="8" height="8" transform="rotate(0,6,86)"/><rect x="2" y="90" width="8" height="8" transform="rotate(0,6,94)"/><rect x="2" y="114" width="8" height="8" transform="rotate(0,6,118)"/><rect x="2" y="138" width="8" height="8" transform="rotate(0,6,142)"/><rect x="2" y="194" width="8" height="8" transform="rotate(0,6,198)"/><rect x="2" y="202" width="8" height="8" transform="rotate(0,6,206)"/><rect x="2" y="210" width="8" height="8" transform="rotate(0,6,214)"/><rect x="2" y="218" width="8" height="8" transform="rotate(0,6,222)"/><rect x="10" y="82" width="8" height="8" transform="rotate(0,14,86)"/><rect x="10" y="90" width="8" height="8" transform="rotate(0,14,94)"/><rect x="10" y="106" width="8" height="8" transform="rotate(0,14,110)"/><rect x="10" y="114" width="8" height="8" transform="rotate(0,14,118)"/><rect x="10" y="122" width="8" height="8" transform="rotate(0,14,126)"/><rect x="10" y="138" width="8" height="8" transform="rotate(0,14,142)"/><rect x="10" y="186" width="8" height="8" transform="rotate(0,14,190)"/><rect x="10" y="194" width="8" height="8" transform="rotate(0,14,198)"/><rect x="10" y="210" width="8" height="8" transform="rotate(0,14,214)"/><rect x="10" y="218" width="8" height="8" transform="rotate(0,14,222)"/><rect x="18" y="66" width="8" height="8" transform="rotate(0,22,70)"/><rect x="18" y="90" width="8" height="8" transform="rotate(0,22,94)"/><rect x="18" y="114" width="8" height="8" transform="rotate(0,22,118)"/><rect x="18" y="130" width="8" height="8" transform="rotate(0,22,134)"/><rect x="18" y="138" width="8" height="8" transform="rotate(0,22,142)"/><rect x="18" y="146" width="8" height="8" transform="rotate(0,22,150)"/><rect x="18" y="178" width="8" height="8" transform="rotate(0,22,182)"/><rect x="18" y="186" width="8" height="8" transform="rotate(0,22,190)"/><rect x="18" y="194" width="8" height="8" transform="rotate(0,22,198)"/><rect x="18" y="226" width="8" height="8" transform="rotate(0,22,230)"/><rect x="26" y="66" width="8" height="8" transform="rotate(0,30,70)"/><rect x="26" y="74" width="8" height="8" transform="rotate(0,30,78)"/><rect x="26" y="106" width="8" height="8" transform="rotate(0,30,110)"/><rect x="26" y="114" width="8" height="8" transform="rotate(0,30,118)"/><rect x="26" y="154" width="8" height="8" transform="rotate(0,30,158)"/><rect x="26" y="162" width="8" height="8" transform="rotate(0,30,166)"/><rect x="26" y="178" width="8" height="8" transform="rotate(0,30,182)"/><rect x="26" y="186" width="8" height="8" transform="rotate(0,30,190)"/><rect x="26" y="218" width="8" height="8" transform="rotate(0,30,222)"/><rect x="34" y="90" width="8" height="8" transform="rotate(0,38,94)"/><rect x="34" y="130" width="8" height="8" transform="rotate(0,38,134)"/><rect x="34" y="138" width="8" height="8" transform="rotate(0,38,142)"/><rect x="34" y="146" width="8" height="8" transform="rotate(0,38,150)"/><rect x="34" y="162" width="8" height="8" transform="rotate(0,38,166)"/><rect x="34" y="186" width="8" height="8" transform="rotate(0,38,190)"/><rect x="34" y="194" width="8" height="8" transform="rotate(0,38,198)"/><rect x="34" y="202" width="8" height="8" transform="rotate(0,38,206)"/><rect x="34" y="210" width="8" height="8" transform="rotate(0,38,214)"/><rect x="34" y="218" width="8" height="8" transform="rotate(0,38,222)"/><rect x="42" y="66" width="8" height="8" transform="rotate(0,46,70)"/><rect x="42" y="74" width="8" height="8" transform="rotate(0,46,78)"/><rect x="42" y="82" width="8" height="8" transform="rotate(0,46,86)"/><rect x="42" y="90" width="8" height="8" transform="rotate(0,46,94)"/><rect x="42" y="122" width="8" height="8" transform="rotate(0,46,126)"/><rect x="42" y="130" width="8" height="8" transform="rotate(0,46,134)"/><rect x="42" y="138" width="8" height="8" transform="rotate(0,46,142)"/><rect x="42" y="146" width="8" height="8" transform="rotate(0,46,150)"/><rect x="42" y="170" width="8" height="8" transform="rotate(0,46,174)"/><rect x="42" y="178" width="8" height="8" transform="rotate(0,46,182)"/><rect x="42" y="202" width="8" height="8" transform="rotate(0,46,206)"/><rect x="42" y="210" width="8" height="8" transform="rotate(0,46,214)"/><rect x="42" y="218" width="8" height="8" transform="rotate(0,46,222)"/><rect x="42" y="226" width="8" height="8" transform="rotate(0,46,230)"/><rect x="50" y="66" width="8" height="8" transform="rotate(0,54,70)"/><rect x="50" y="82" width="8" height="8" transform="rotate(0,54,86)"/><rect x="50" y="98" width="8" height="8" transform="rotate(0,54,102)"/><rect x="50" y="114" width="8" height="8" transform="rotate(0,54,118)"/><rect x="50" y="130" width="8" height="8" transform="rotate(0,54,134)"/><rect x="50" y="146" width="8" height="8" transform="rotate(0,54,150)"/><rect x="50" y="162" width="8" height="8" transform="rotate(0,54,166)"/><rect x="50" y="178" width="8" height="8" transform="rotate(0,54,182)"/><rect x="50" y="194" width="8" height="8" transform="rotate(0,54,198)"/><rect x="50" y="210" width="8" height="8" transform="rotate(0,54,214)"/><rect x="50" y="226" width="8" height="8" transform="rotate(0,54,230)"/><rect x="58" y="66" width="8" height="8" transform="rotate(0,62,70)"/><rect x="58" y="74" width="8" height="8" transform="rotate(0,62,78)"/><rect x="58" y="90" width="8" height="8" transform="rotate(0,62,94)"/><rect x="58" y="98" width="8" height="8" transform="rotate(0,62,102)"/><rect x="58" y="114" width="8" height="8" transform="rotate(0,62,118)"/><rect x="58" y="154" width="8" height="8" transform="rotate(0,62,158)"/><rect x="58" y="170" width="8" height="8" transform="rotate(0,62,174)"/><rect x="58" y="178" width="8" height="8" transform="rotate(0,62,182)"/><rect x="58" y="186" width="8" height="8" transform="rotate(0,62,190)"/><rect x="58" y="210" width="8" height="8" transform="rotate(0,62,214)"/><rect x="66" y="10" width="8" height="8" transform="rotate(0,70,14)"/><rect x="66" y="26" width="8" height="8" transform="rotate(0,70,30)"/><rect x="66" y="42" width="8" height="8" transform="rotate(0,70,46)"/><rect x="66" y="50" width="8" height="8" transform="rotate(0,70,54)"/><rect x="66" y="58" width="8" height="8" transform="rotate(0,70,62)"/><rect x="66" y="66" width="8" height="8" transform="rotate(0,70,70)"/><rect x="66" y="90" width="8" height="8" transform="rotate(0,70,94)"/><rect x="66" y="98" width="8" height="8" transform="rotate(0,70,102)"/><rect x="66" y="106" width="8" height="8" transform="rotate(0,70,110)"/><rect x="66" y="122" width="8" height="8" transform="rotate(0,70,126)"/><rect x="66" y="130" width="8" height="8" transform="rotate(0,70,134)"/><rect x="66" y="154" width="8" height="8" transform="rotate(0,70,158)"/><rect x="66" y="162" width="8" height="8" transform="rotate(0,70,166)"/><rect x="66" y="170" width="8" height="8" transform="rotate(0,70,174)"/><rect x="66" y="186" width="8" height="8" transform="rotate(0,70,190)"/><rect x="66" y="218" width="8" height="8" transform="rotate(0,70,222)"/><rect x="66" y="226" width="8" height="8" transform="rotate(0,70,230)"/><rect x="66" y="234" width="8" height="8" transform="rotate(0,70,238)"/><rect x="66" y="242" width="8" height="8" transform="rotate(0,70,246)"/><rect x="66" y="250" width="8" height="8" transform="rotate(0,70,254)"/><rect x="66" y="266" width="8" height="8" transform="rotate(0,70,270)"/><rect x="66" y="274" width="8" height="8" transform="rotate(0,70,278)"/><rect x="66" y="290" width="8" height="8" transform="rotate(0,70,294)"/><rect x="74" y="2" width="8" height="8" transform="rotate(0,78,6)"/><rect x="74" y="10" width="8" height="8" transform="rotate(0,78,14)"/><rect x="74" y="26" width="8" height="8" transform="rotate(0,78,30)"/><rect x="74" y="34" width="8" height="8" transform="rotate(0,78,38)"/><rect x="74" y="66" width="8" height="8" transform="rotate(0,78,70)"/><rect x="74" y="74" width="8" height="8" transform="rotate(0,78,78)"/><rect x="74" y="82" width="8" height="8" transform="rotate(0,78,86)"/><rect x="74" y="106" width="8" height="8" transform="rotate(0,78,110)"/><rect x="74" y="114" width="8" height="8" transform="rotate(0,78,118)"/><rect x="74" y="122" width="8" height="8" transform="rotate(0,78,126)"/><rect x="74" y="130" width="8" height="8" transform="rotate(0,78,134)"/><rect x="74" y="138" width="8" height="8" transform="rotate(0,78,142)"/><rect x="74" y="154" width="8" height="8" transform="rotate(0,78,158)"/><rect x="74" y="162" width="8" height="8" transform="rotate(0,78,166)"/><rect x="74" y="194" width="8" height="8" transform="rotate(0,78,198)"/><rect x="74" y="210" width="8" height="8" transform="rotate(0,78,214)"/><rect x="74" y="218" width="8" height="8" transform="rotate(0,78,222)"/><rect x="74" y="226" width="8" height="8" transform="rotate(0,78,230)"/><rect x="74" y="234" width="8" height="8" transform="rotate(0,78,238)"/><rect x="74" y="250" width="8" height="8" transform="rotate(0,78,254)"/><rect x="74" y="274" width="8" height="8" transform="rotate(0,78,278)"/><rect x="74" y="282" width="8" height="8" transform="rotate(0,78,286)"/><rect x="74" y="290" width="8" height="8" transform="rotate(0,78,294)"/><rect x="82" y="10" width="8" height="8" transform="rotate(0,86,14)"/><rect x="82" y="18" width="8" height="8" transform="rotate(0,86,22)"/><rect x="82" y="26" width="8" height="8" transform="rotate(0,86,30)"/><rect x="82" y="34" width="8" height="8" transform="rotate(0,86,38)"/><rect x="82" y="42" width="8" height="8" transform="rotate(0,86,46)"/><rect x="82" y="50" width="8" height="8" transform="rotate(0,86,54)"/><rect x="82" y="66" width="8" height="8" transform="rotate(0,86,70)"/><rect x="82" y="90" width="8" height="8" transform="rotate(0,86,94)"/><rect x="82" y="106" width="8" height="8" transform="rotate(0,86,110)"/><rect x="82" y="122" width="8" height="8" transform="rotate(0,86,126)"/><rect x="82" y="130" width="8" height="8" transform="rotate(0,86,134)"/><rect x="82" y="154" width="8" height="8" transform="rotate(0,86,158)"/><rect x="82" y="162" width="8" height="8" transform="rotate(0,86,166)"/><rect x="82" y="170" width="8" height="8" transform="rotate(0,86,174)"/><rect x="82" y="178" width="8" height="8" transform="rotate(0,86,182)"/><rect x="82" y="218" width="8" height="8" transform="rotate(0,86,222)"/><rect x="82" y="242" width="8" height="8" transform="rotate(0,86,246)"/><rect x="82" y="250" width="8" height="8" transform="rotate(0,86,254)"/><rect x="82" y="266" width="8" height="8" transform="rotate(0,86,270)"/><rect x="82" y="274" width="8" height="8" transform="rotate(0,86,278)"/><rect x="82" y="290" width="8" height="8" transform="rotate(0,86,294)"/><rect x="90" y="18" width="8" height="8" transform="rotate(0,94,22)"/><rect x="90" y="34" width="8" height="8" transform="rotate(0,94,38)"/><rect x="90" y="42" width="8" height="8" transform="rotate(0,94,46)"/><rect x="90" y="58" width="8" height="8" transform="rotate(0,94,62)"/><rect x="90" y="82" width="8" height="8" transform="rotate(0,94,86)"/><rect x="90" y="98" width="8" height="8" transform="rotate(0,94,102)"/><rect x="90" y="106" width="8" height="8" transform="rotate(0,94,110)"/><rect x="90" y="146" width="8" height="8" transform="rotate(0,94,150)"/><rect x="90" y="154" width="8" height="8" transform="rotate(0,94,158)"/><rect x="90" y="170" width="8" height="8" transform="rotate(0,94,174)"/><rect x="90" y="178" width="8" height="8" transform="rotate(0,94,182)"/><rect x="90" y="202" width="8" height="8" transform="rotate(0,94,206)"/><rect x="90" y="226" width="8" height="8" transform="rotate(0,94,230)"/><rect x="90" y="250" width="8" height="8" transform="rotate(0,94,254)"/><rect x="90" y="258" width="8" height="8" transform="rotate(0,94,262)"/><rect x="90" y="290" width="8" height="8" transform="rotate(0,94,294)"/><rect x="98" y="2" width="8" height="8" transform="rotate(0,102,6)"/><rect x="98" y="10" width="8" height="8" transform="rotate(0,102,14)"/><rect x="98" y="26" width="8" height="8" transform="rotate(0,102,30)"/><rect x="98" y="34" width="8" height="8" transform="rotate(0,102,38)"/><rect x="98" y="50" width="8" height="8" transform="rotate(0,102,54)"/><rect x="98" y="58" width="8" height="8" transform="rotate(0,102,62)"/><rect x="98" y="146" width="8" height="8" transform="rotate(0,102,150)"/><rect x="98" y="154" width="8" height="8" transform="rotate(0,102,158)"/><rect x="98" y="170" width="8" height="8" transform="rotate(0,102,174)"/><rect x="98" y="194" width="8" height="8" transform="rotate(0,102,198)"/><rect x="98" y="202" width="8" height="8" transform="rotate(0,102,206)"/><rect x="98" y="218" width="8" height="8" transform="rotate(0,102,222)"/><rect x="98" y="226" width="8" height="8" transform="rotate(0,102,230)"/><rect x="98" y="234" width="8" height="8" transform="rotate(0,102,238)"/><rect x="98" y="242" width="8" height="8" transform="rotate(0,102,246)"/><rect x="98" y="250" width="8" height="8" transform="rotate(0,102,254)"/><rect x="98" y="266" width="8" height="8" transform="rotate(0,102,270)"/><rect x="98" y="282" width="8" height="8" transform="rotate(0,102,286)"/><rect x="106" y="2" width="8" height="8" transform="rotate(0,110,6)"/><rect x="106" y="18" width="8" height="8" transform="rotate(0,110,22)"/><rect x="106" y="26" width="8" height="8" transform="rotate(0,110,30)"/><rect x="106" y="34" width="8" height="8" transform="rotate(0,110,38)"/><rect x="106" y="42" width="8" height="8" transform="rotate(0,110,46)"/><rect x="106" y="58" width="8" height="8" transform="rotate(0,110,62)"/><rect x="106" y="74" width="8" height="8" transform="rotate(0,110,78)"/><rect x="106" y="106" width="8" height="8" transform="rotate(0,110,110)"/><rect x="106" y="122" width="8" height="8" transform="rotate(0,110,126)"/><rect x="106" y="130" width="8" height="8" transform="rotate(0,110,134)"/><rect x="106" y="138" width="8" height="8" transform="rotate(0,110,142)"/><rect x="106" y="146" width="8" height="8" transform="rotate(0,110,150)"/><rect x="106" y="178" width="8" height="8" transform="rotate(0,110,182)"/><rect x="106" y="194" width="8" height="8" transform="rotate(0,110,198)"/><rect x="106" y="242" width="8" height="8" transform="rotate(0,110,246)"/><rect x="106" y="250" width="8" height="8" transform="rotate(0,110,254)"/><rect x="106" y="266" width="8" height="8" transform="rotate(0,110,270)"/><rect x="106" y="282" width="8" height="8" transform="rotate(0,110,286)"/><rect x="106" y="290" width="8" height="8" transform="rotate(0,110,294)"/><rect x="114" y="18" width="8" height="8" transform="rotate(0,118,22)"/><rect x="114" y="50" width="8" height="8" transform="rotate(0,118,54)"/><rect x="114" y="58" width="8" height="8" transform="rotate(0,118,62)"/><rect x="114" y="90" width="8" height="8" transform="rotate(0,118,94)"/><rect x="114" y="122" width="8" height="8" transform="rotate(0,118,126)"/><rect x="114" y="154" width="8" height="8" transform="rotate(0,118,158)"/><rect x="114" y="170" width="8" height="8" transform="rotate(0,118,174)"/><rect x="114" y="186" width="8" height="8" transform="rotate(0,118,190)"/><rect x="114" y="202" width="8" height="8" transform="rotate(0,118,206)"/><rect x="114" y="250" width="8" height="8" transform="rotate(0,118,254)"/><rect x="114" y="274" width="8" height="8" transform="rotate(0,118,278)"/><rect x="114" y="290" width="8" height="8" transform="rotate(0,118,294)"/><rect x="122" y="10" width="8" height="8" transform="rotate(0,126,14)"/><rect x="122" y="34" width="8" height="8" transform="rotate(0,126,38)"/><rect x="122" y="58" width="8" height="8" transform="rotate(0,126,62)"/><rect x="122" y="74" width="8" height="8" transform="rotate(0,126,78)"/><rect x="122" y="82" width="8" height="8" transform="rotate(0,126,86)"/><rect x="122" y="106" width="8" height="8" transform="rotate(0,126,110)"/><rect x="122" y="146" width="8" height="8" transform="rotate(0,126,150)"/><rect x="122" y="186" width="8" height="8" transform="rotate(0,126,190)"/><rect x="122" y="202" width="8" height="8" transform="rotate(0,126,206)"/><rect x="122" y="218" width="8" height="8" transform="rotate(0,126,222)"/><rect x="122" y="226" width="8" height="8" transform="rotate(0,126,230)"/><rect x="122" y="242" width="8" height="8" transform="rotate(0,126,246)"/><rect x="122" y="290" width="8" height="8" transform="rotate(0,126,294)"/><rect x="130" y="2" width="8" height="8" transform="rotate(0,134,6)"/><rect x="130" y="10" width="8" height="8" transform="rotate(0,134,14)"/><rect x="130" y="34" width="8" height="8" transform="rotate(0,134,38)"/><rect x="130" y="50" width="8" height="8" transform="rotate(0,134,54)"/><rect x="130" y="66" width="8" height="8" transform="rotate(0,134,70)"/><rect x="130" y="74" width="8" height="8" transform="rotate(0,134,78)"/><rect x="130" y="82" width="8" height="8" transform="rotate(0,134,86)"/><rect x="130" y="90" width="8" height="8" transform="rotate(0,134,94)"/><rect x="130" y="98" width="8" height="8" transform="rotate(0,134,102)"/><rect x="130" y="114" width="8" height="8" transform="rotate(0,134,118)"/><rect x="130" y="122" width="8" height="8" transform="rotate(0,134,126)"/><rect x="130" y="146" width="8" height="8" transform="rotate(0,134,150)"/><rect x="130" y="154" width="8" height="8" transform="rotate(0,134,158)"/><rect x="130" y="178" width="8" height="8" transform="rotate(0,134,182)"/><rect x="130" y="186" width="8" height="8" transform="rotate(0,134,190)"/><rect x="130" y="194" width="8" height="8" transform="rotate(0,134,198)"/><rect x="130" y="234" width="8" height="8" transform="rotate(0,134,238)"/><rect x="130" y="242" width="8" height="8" transform="rotate(0,134,246)"/><rect x="130" y="250" width="8" height="8" transform="rotate(0,134,254)"/><rect x="130" y="266" width="8" height="8" transform="rotate(0,134,270)"/><rect x="130" y="274" width="8" height="8" transform="rotate(0,134,278)"/><rect x="130" y="282" width="8" height="8" transform="rotate(0,134,286)"/><rect x="138" y="2" width="8" height="8" transform="rotate(0,142,6)"/><rect x="138" y="18" width="8" height="8" transform="rotate(0,142,22)"/><rect x="138" y="26" width="8" height="8" transform="rotate(0,142,30)"/><rect x="138" y="34" width="8" height="8" transform="rotate(0,142,38)"/><rect x="138" y="42" width="8" height="8" transform="rotate(0,142,46)"/><rect x="138" y="66" width="8" height="8" transform="rotate(0,142,70)"/><rect x="138" y="74" width="8" height="8" transform="rotate(0,142,78)"/><rect x="138" y="82" width="8" height="8" transform="rotate(0,142,86)"/><rect x="138" y="90" width="8" height="8" transform="rotate(0,142,94)"/><rect x="138" y="98" width="8" height="8" transform="rotate(0,142,102)"/><rect x="138" y="106" width="8" height="8" transform="rotate(0,142,110)"/><rect x="138" y="122" width="8" height="8" transform="rotate(0,142,126)"/><rect x="138" y="130" width="8" height="8" transform="rotate(0,142,134)"/><rect x="138" y="138" width="8" height="8" transform="rotate(0,142,142)"/><rect x="138" y="146" width="8" height="8" transform="rotate(0,142,150)"/><rect x="138" y="170" width="8" height="8" transform="rotate(0,142,174)"/><rect x="138" y="194" width="8" height="8" transform="rotate(0,142,198)"/><rect x="138" y="210" width="8" height="8" transform="rotate(0,142,214)"/><rect x="138" y="226" width="8" height="8" transform="rotate(0,142,230)"/><rect x="138" y="242" width="8" height="8" transform="rotate(0,142,246)"/><rect x="138" y="258" width="8" height="8" transform="rotate(0,142,262)"/><rect x="138" y="274" width="8" height="8" transform="rotate(0,142,278)"/><rect x="138" y="290" width="8" height="8" transform="rotate(0,142,294)"/><rect x="146" y="2" width="8" height="8" transform="rotate(0,150,6)"/><rect x="146" y="42" width="8" height="8" transform="rotate(0,150,46)"/><rect x="146" y="50" width="8" height="8" transform="rotate(0,150,54)"/><rect x="146" y="74" width="8" height="8" transform="rotate(0,150,78)"/><rect x="146" y="82" width="8" height="8" transform="rotate(0,150,86)"/><rect x="146" y="106" width="8" height="8" transform="rotate(0,150,110)"/><rect x="146" y="122" width="8" height="8" transform="rotate(0,150,126)"/><rect x="146" y="130" width="8" height="8" transform="rotate(0,150,134)"/><rect x="146" y="146" width="8" height="8" transform="rotate(0,150,150)"/><rect x="146" y="154" width="8" height="8" transform="rotate(0,150,158)"/><rect x="146" y="186" width="8" height="8" transform="rotate(0,150,190)"/><rect x="146" y="194" width="8" height="8" transform="rotate(0,150,198)"/><rect x="146" y="202" width="8" height="8" transform="rotate(0,150,206)"/><rect x="146" y="226" width="8" height="8" transform="rotate(0,150,230)"/><rect x="146" y="242" width="8" height="8" transform="rotate(0,150,246)"/><rect x="146" y="250" width="8" height="8" transform="rotate(0,150,254)"/><rect x="146" y="282" width="8" height="8" transform="rotate(0,150,286)"/><rect x="146" y="290" width="8" height="8" transform="rotate(0,150,294)"/><rect x="154" y="2" width="8" height="8" transform="rotate(0,158,6)"/><rect x="154" y="58" width="8" height="8" transform="rotate(0,158,62)"/><rect x="154" y="66" width="8" height="8" transform="rotate(0,158,70)"/><rect x="154" y="90" width="8" height="8" transform="rotate(0,158,94)"/><rect x="154" y="98" width="8" height="8" transform="rotate(0,158,102)"/><rect x="154" y="106" width="8" height="8" transform="rotate(0,158,110)"/><rect x="154" y="122" width="8" height="8" transform="rotate(0,158,126)"/><rect x="154" y="130" width="8" height="8" transform="rotate(0,158,134)"/><rect x="154" y="138" width="8" height="8" transform="rotate(0,158,142)"/><rect x="154" y="146" width="8" height="8" transform="rotate(0,158,150)"/><rect x="154" y="154" width="8" height="8" transform="rotate(0,158,158)"/><rect x="154" y="170" width="8" height="8" transform="rotate(0,158,174)"/><rect x="154" y="194" width="8" height="8" transform="rotate(0,158,198)"/><rect x="154" y="218" width="8" height="8" transform="rotate(0,158,222)"/><rect x="154" y="234" width="8" height="8" transform="rotate(0,158,238)"/><rect x="154" y="242" width="8" height="8" transform="rotate(0,158,246)"/><rect x="154" y="274" width="8" height="8" transform="rotate(0,158,278)"/><rect x="162" y="26" width="8" height="8" transform="rotate(0,166,30)"/><rect x="162" y="34" width="8" height="8" transform="rotate(0,166,38)"/><rect x="162" y="42" width="8" height="8" transform="rotate(0,166,46)"/><rect x="162" y="50" width="8" height="8" transform="rotate(0,166,54)"/><rect x="162" y="58" width="8" height="8" transform="rotate(0,166,62)"/><rect x="162" y="66" width="8" height="8" transform="rotate(0,166,70)"/><rect x="162" y="74" width="8" height="8" transform="rotate(0,166,78)"/><rect x="162" y="82" width="8" height="8" transform="rotate(0,166,86)"/><rect x="162" y="98" width="8" height="8" transform="rotate(0,166,102)"/><rect x="162" y="106" width="8" height="8" transform="rotate(0,166,110)"/><rect x="162" y="154" width="8" height="8" transform="rotate(0,166,158)"/><rect x="162" y="162" width="8" height="8" transform="rotate(0,166,166)"/><rect x="162" y="170" width="8" height="8" transform="rotate(0,166,174)"/><rect x="162" y="202" width="8" height="8" transform="rotate(0,166,206)"/><rect x="162" y="210" width="8" height="8" transform="rotate(0,166,214)"/><rect x="162" y="218" width="8" height="8" transform="rotate(0,166,222)"/><rect x="162" y="226" width="8" height="8" transform="rotate(0,166,230)"/><rect x="162" y="242" width="8" height="8" transform="rotate(0,166,246)"/><rect x="162" y="250" width="8" height="8" transform="rotate(0,166,254)"/><rect x="162" y="258" width="8" height="8" transform="rotate(0,166,262)"/><rect x="162" y="282" width="8" height="8" transform="rotate(0,166,286)"/><rect x="162" y="290" width="8" height="8" transform="rotate(0,166,294)"/><rect x="170" y="42" width="8" height="8" transform="rotate(0,174,46)"/><rect x="170" y="66" width="8" height="8" transform="rotate(0,174,70)"/><rect x="170" y="106" width="8" height="8" transform="rotate(0,174,110)"/><rect x="170" y="114" width="8" height="8" transform="rotate(0,174,118)"/><rect x="170" y="138" width="8" height="8" transform="rotate(0,174,142)"/><rect x="170" y="154" width="8" height="8" transform="rotate(0,174,158)"/><rect x="170" y="162" width="8" height="8" transform="rotate(0,174,166)"/><rect x="170" y="194" width="8" height="8" transform="rotate(0,174,198)"/><rect x="170" y="234" width="8" height="8" transform="rotate(0,174,238)"/><rect x="170" y="242" width="8" height="8" transform="rotate(0,174,246)"/><rect x="170" y="274" width="8" height="8" transform="rotate(0,174,278)"/><rect x="170" y="282" width="8" height="8" transform="rotate(0,174,286)"/><rect x="170" y="290" width="8" height="8" transform="rotate(0,174,294)"/><rect x="178" y="2" width="8" height="8" transform="rotate(0,182,6)"/><rect x="178" y="18" width="8" height="8" transform="rotate(0,182,22)"/><rect x="178" y="42" width="8" height="8" transform="rotate(0,182,46)"/><rect x="178" y="50" width="8" height="8" transform="rotate(0,182,54)"/><rect x="178" y="66" width="8" height="8" transform="rotate(0,182,70)"/><rect x="178" y="82" width="8" height="8" transform="rotate(0,182,86)"/><rect x="178" y="122" width="8" height="8" transform="rotate(0,182,126)"/><rect x="178" y="154" width="8" height="8" transform="rotate(0,182,158)"/><rect x="178" y="162" width="8" height="8" transform="rotate(0,182,166)"/><rect x="178" y="194" width="8" height="8" transform="rotate(0,182,198)"/><rect x="178" y="234" width="8" height="8" transform="rotate(0,182,238)"/><rect x="178" y="250" width="8" height="8" transform="rotate(0,182,254)"/><rect x="178" y="258" width="8" height="8" transform="rotate(0,182,262)"/><rect x="178" y="274" width="8" height="8" transform="rotate(0,182,278)"/><rect x="178" y="290" width="8" height="8" transform="rotate(0,182,294)"/><rect x="186" y="2" width="8" height="8" transform="rotate(0,190,6)"/><rect x="186" y="34" width="8" height="8" transform="rotate(0,190,38)"/><rect x="186" y="42" width="8" height="8" transform="rotate(0,190,46)"/><rect x="186" y="74" width="8" height="8" transform="rotate(0,190,78)"/><rect x="186" y="82" width="8" height="8" transform="rotate(0,190,86)"/><rect x="186" y="90" width="8" height="8" transform="rotate(0,190,94)"/><rect x="186" y="106" width="8" height="8" transform="rotate(0,190,110)"/><rect x="186" y="122" width="8" height="8" transform="rotate(0,190,126)"/><rect x="186" y="130" width="8" height="8" transform="rotate(0,190,134)"/><rect x="186" y="146" width="8" height="8" transform="rotate(0,190,150)"/><rect x="186" y="162" width="8" height="8" transform="rotate(0,190,166)"/><rect x="186" y="170" width="8" height="8" transform="rotate(0,190,174)"/><rect x="186" y="178" width="8" height="8" transform="rotate(0,190,182)"/><rect x="186" y="210" width="8" height="8" transform="rotate(0,190,214)"/><rect x="186" y="242" width="8" height="8" transform="rotate(0,190,246)"/><rect x="186" y="258" width="8" height="8" transform="rotate(0,190,262)"/><rect x="194" y="2" width="8" height="8" transform="rotate(0,198,6)"/><rect x="194" y="10" width="8" height="8" transform="rotate(0,198,14)"/><rect x="194" y="26" width="8" height="8" transform="rotate(0,198,30)"/><rect x="194" y="42" width="8" height="8" transform="rotate(0,198,46)"/><rect x="194" y="50" width="8" height="8" transform="rotate(0,198,54)"/><rect x="194" y="58" width="8" height="8" transform="rotate(0,198,62)"/><rect x="194" y="74" width="8" height="8" transform="rotate(0,198,78)"/><rect x="194" y="82" width="8" height="8" transform="rotate(0,198,86)"/><rect x="194" y="98" width="8" height="8" transform="rotate(0,198,102)"/><rect x="194" y="106" width="8" height="8" transform="rotate(0,198,110)"/><rect x="194" y="114" width="8" height="8" transform="rotate(0,198,118)"/><rect x="194" y="122" width="8" height="8" transform="rotate(0,198,126)"/><rect x="194" y="130" width="8" height="8" transform="rotate(0,198,134)"/><rect x="194" y="138" width="8" height="8" transform="rotate(0,198,142)"/><rect x="194" y="146" width="8" height="8" transform="rotate(0,198,150)"/><rect x="194" y="162" width="8" height="8" transform="rotate(0,198,166)"/><rect x="194" y="170" width="8" height="8" transform="rotate(0,198,174)"/><rect x="194" y="194" width="8" height="8" transform="rotate(0,198,198)"/><rect x="194" y="218" width="8" height="8" transform="rotate(0,198,222)"/><rect x="194" y="234" width="8" height="8" transform="rotate(0,198,238)"/><rect x="194" y="250" width="8" height="8" transform="rotate(0,198,254)"/><rect x="194" y="266" width="8" height="8" transform="rotate(0,198,270)"/><rect x="194" y="282" width="8" height="8" transform="rotate(0,198,286)"/><rect x="194" y="290" width="8" height="8" transform="rotate(0,198,294)"/><rect x="202" y="10" width="8" height="8" transform="rotate(0,206,14)"/><rect x="202" y="18" width="8" height="8" transform="rotate(0,206,22)"/><rect x="202" y="26" width="8" height="8" transform="rotate(0,206,30)"/><rect x="202" y="42" width="8" height="8" transform="rotate(0,206,46)"/><rect x="202" y="58" width="8" height="8" transform="rotate(0,206,62)"/><rect x="202" y="74" width="8" height="8" transform="rotate(0,206,78)"/><rect x="202" y="90" width="8" height="8" transform="rotate(0,206,94)"/><rect x="202" y="98" width="8" height="8" transform="rotate(0,206,102)"/><rect x="202" y="106" width="8" height="8" transform="rotate(0,206,110)"/><rect x="202" y="122" width="8" height="8" transform="rotate(0,206,126)"/><rect x="202" y="130" width="8" height="8" transform="rotate(0,206,134)"/><rect x="202" y="146" width="8" height="8" transform="rotate(0,206,150)"/><rect x="202" y="170" width="8" height="8" transform="rotate(0,206,174)"/><rect x="202" y="178" width="8" height="8" transform="rotate(0,206,182)"/><rect x="202" y="194" width="8" height="8" transform="rotate(0,206,198)"/><rect x="202" y="218" width="8" height="8" transform="rotate(0,206,222)"/><rect x="202" y="226" width="8" height="8" transform="rotate(0,206,230)"/><rect x="202" y="234" width="8" height="8" transform="rotate(0,206,238)"/><rect x="202" y="266" width="8" height="8" transform="rotate(0,206,270)"/><rect x="202" y="274" width="8" height="8" transform="rotate(0,206,278)"/><rect x="202" y="282" width="8" height="8" transform="rotate(0,206,286)"/><rect x="202" y="290" width="8" height="8" transform="rotate(0,206,294)"/><rect x="210" y="2" width="8" height="8" transform="rotate(0,214,6)"/><rect x="210" y="18" width="8" height="8" transform="rotate(0,214,22)"/><rect x="210" y="50" width="8" height="8" transform="rotate(0,214,54)"/><rect x="210" y="90" width="8" height="8" transform="rotate(0,214,94)"/><rect x="210" y="98" width="8" height="8" transform="rotate(0,214,102)"/><rect x="210" y="122" width="8" height="8" transform="rotate(0,214,126)"/><rect x="210" y="138" width="8" height="8" transform="rotate(0,214,142)"/><rect x="210" y="178" width="8" height="8" transform="rotate(0,214,182)"/><rect x="210" y="186" width="8" height="8" transform="rotate(0,214,190)"/><rect x="210" y="194" width="8" height="8" transform="rotate(0,214,198)"/><rect x="210" y="234" width="8" height="8" transform="rotate(0,214,238)"/><rect x="210" y="242" width="8" height="8" transform="rotate(0,214,246)"/><rect x="210" y="274" width="8" height="8" transform="rotate(0,214,278)"/><rect x="210" y="290" width="8" height="8" transform="rotate(0,214,294)"/><rect x="218" y="10" width="8" height="8" transform="rotate(0,222,14)"/><rect x="218" y="18" width="8" height="8" transform="rotate(0,222,22)"/><rect x="218" y="34" width="8" height="8" transform="rotate(0,222,38)"/><rect x="218" y="58" width="8" height="8" transform="rotate(0,222,62)"/><rect x="218" y="66" width="8" height="8" transform="rotate(0,222,70)"/><rect x="218" y="74" width="8" height="8" transform="rotate(0,222,78)"/><rect x="218" y="106" width="8" height="8" transform="rotate(0,222,110)"/><rect x="218" y="122" width="8" height="8" transform="rotate(0,222,126)"/><rect x="218" y="138" width="8" height="8" transform="rotate(0,222,142)"/><rect x="218" y="146" width="8" height="8" transform="rotate(0,222,150)"/><rect x="218" y="162" width="8" height="8" transform="rotate(0,222,166)"/><rect x="218" y="170" width="8" height="8" transform="rotate(0,222,174)"/><rect x="218" y="178" width="8" height="8" transform="rotate(0,222,182)"/><rect x="218" y="202" width="8" height="8" transform="rotate(0,222,206)"/><rect x="218" y="210" width="8" height="8" transform="rotate(0,222,214)"/><rect x="218" y="218" width="8" height="8" transform="rotate(0,222,222)"/><rect x="218" y="242" width="8" height="8" transform="rotate(0,222,246)"/><rect x="218" y="290" width="8" height="8" transform="rotate(0,222,294)"/><rect x="226" y="2" width="8" height="8" transform="rotate(0,230,6)"/><rect x="226" y="10" width="8" height="8" transform="rotate(0,230,14)"/><rect x="226" y="18" width="8" height="8" transform="rotate(0,230,22)"/><rect x="226" y="26" width="8" height="8" transform="rotate(0,230,30)"/><rect x="226" y="34" width="8" height="8" transform="rotate(0,230,38)"/><rect x="226" y="50" width="8" height="8" transform="rotate(0,230,54)"/><rect x="226" y="58" width="8" height="8" transform="rotate(0,230,62)"/><rect x="226" y="82" width="8" height="8" transform="rotate(0,230,86)"/><rect x="226" y="114" width="8" height="8" transform="rotate(0,230,118)"/><rect x="226" y="122" width="8" height="8" transform="rotate(0,230,126)"/><rect x="226" y="130" width="8" height="8" transform="rotate(0,230,134)"/><rect x="226" y="138" width="8" height="8" transform="rotate(0,230,142)"/><rect x="226" y="146" width="8" height="8" transform="rotate(0,230,150)"/><rect x="226" y="162" width="8" height="8" transform="rotate(0,230,166)"/><rect x="226" y="170" width="8" height="8" transform="rotate(0,230,174)"/><rect x="226" y="178" width="8" height="8" transform="rotate(0,230,182)"/><rect x="226" y="194" width="8" height="8" transform="rotate(0,230,198)"/><rect x="226" y="226" width="8" height="8" transform="rotate(0,230,230)"/><rect x="226" y="234" width="8" height="8" transform="rotate(0,230,238)"/><rect x="226" y="242" width="8" height="8" transform="rotate(0,230,246)"/><rect x="226" y="250" width="8" height="8" transform="rotate(0,230,254)"/><rect x="226" y="258" width="8" height="8" transform="rotate(0,230,262)"/><rect x="226" y="266" width="8" height="8" transform="rotate(0,230,270)"/><rect x="226" y="274" width="8" height="8" transform="rotate(0,230,278)"/><rect x="226" y="282" width="8" height="8" transform="rotate(0,230,286)"/><rect x="234" y="66" width="8" height="8" transform="rotate(0,238,70)"/><rect x="234" y="74" width="8" height="8" transform="rotate(0,238,78)"/><rect x="234" y="82" width="8" height="8" transform="rotate(0,238,86)"/><rect x="234" y="106" width="8" height="8" transform="rotate(0,238,110)"/><rect x="234" y="122" width="8" height="8" transform="rotate(0,238,126)"/><rect x="234" y="138" width="8" height="8" transform="rotate(0,238,142)"/><rect x="234" y="146" width="8" height="8" transform="rotate(0,238,150)"/><rect x="234" y="154" width="8" height="8" transform="rotate(0,238,158)"/><rect x="234" y="170" width="8" height="8" transform="rotate(0,238,174)"/><rect x="234" y="178" width="8" height="8" transform="rotate(0,238,182)"/><rect x="234" y="186" width="8" height="8" transform="rotate(0,238,190)"/><rect x="234" y="194" width="8" height="8" transform="rotate(0,238,198)"/><rect x="234" y="210" width="8" height="8" transform="rotate(0,238,214)"/><rect x="234" y="218" width="8" height="8" transform="rotate(0,238,222)"/><rect x="234" y="226" width="8" height="8" transform="rotate(0,238,230)"/><rect x="234" y="258" width="8" height="8" transform="rotate(0,238,262)"/><rect x="234" y="290" width="8" height="8" transform="rotate(0,238,294)"/><rect x="242" y="66" width="8" height="8" transform="rotate(0,246,70)"/><rect x="242" y="114" width="8" height="8" transform="rotate(0,246,118)"/><rect x="242" y="122" width="8" height="8" transform="rotate(0,246,126)"/><rect x="242" y="130" width="8" height="8" transform="rotate(0,246,134)"/><rect x="242" y="162" width="8" height="8" transform="rotate(0,246,166)"/><rect x="242" y="178" width="8" height="8" transform="rotate(0,246,182)"/><rect x="242" y="194" width="8" height="8" transform="rotate(0,246,198)"/><rect x="242" y="202" width="8" height="8" transform="rotate(0,246,206)"/><rect x="242" y="218" width="8" height="8" transform="rotate(0,246,222)"/><rect x="242" y="226" width="8" height="8" transform="rotate(0,246,230)"/><rect x="242" y="242" width="8" height="8" transform="rotate(0,246,246)"/><rect x="242" y="258" width="8" height="8" transform="rotate(0,246,262)"/><rect x="242" y="274" width="8" height="8" transform="rotate(0,246,278)"/><rect x="242" y="282" width="8" height="8" transform="rotate(0,246,286)"/><rect x="242" y="290" width="8" height="8" transform="rotate(0,246,294)"/><rect x="250" y="66" width="8" height="8" transform="rotate(0,254,70)"/><rect x="250" y="74" width="8" height="8" transform="rotate(0,254,78)"/><rect x="250" y="82" width="8" height="8" transform="rotate(0,254,86)"/><rect x="250" y="90" width="8" height="8" transform="rotate(0,254,94)"/><rect x="250" y="98" width="8" height="8" transform="rotate(0,254,102)"/><rect x="250" y="106" width="8" height="8" transform="rotate(0,254,110)"/><rect x="250" y="122" width="8" height="8" transform="rotate(0,254,126)"/><rect x="250" y="130" width="8" height="8" transform="rotate(0,254,134)"/><rect x="250" y="170" width="8" height="8" transform="rotate(0,254,174)"/><rect x="250" y="186" width="8" height="8" transform="rotate(0,254,190)"/><rect x="250" y="194" width="8" height="8" transform="rotate(0,254,198)"/><rect x="250" y="210" width="8" height="8" transform="rotate(0,254,214)"/><rect x="250" y="226" width="8" height="8" transform="rotate(0,254,230)"/><rect x="250" y="258" width="8" height="8" transform="rotate(0,254,262)"/><rect x="250" y="274" width="8" height="8" transform="rotate(0,254,278)"/><rect x="250" y="282" width="8" height="8" transform="rotate(0,254,286)"/><rect x="258" y="74" width="8" height="8" transform="rotate(0,262,78)"/><rect x="258" y="90" width="8" height="8" transform="rotate(0,262,94)"/><rect x="258" y="114" width="8" height="8" transform="rotate(0,262,118)"/><rect x="258" y="138" width="8" height="8" transform="rotate(0,262,142)"/><rect x="258" y="178" width="8" height="8" transform="rotate(0,262,182)"/><rect x="258" y="202" width="8" height="8" transform="rotate(0,262,206)"/><rect x="258" y="210" width="8" height="8" transform="rotate(0,262,214)"/><rect x="258" y="226" width="8" height="8" transform="rotate(0,262,230)"/><rect x="258" y="234" width="8" height="8" transform="rotate(0,262,238)"/><rect x="258" y="242" width="8" height="8" transform="rotate(0,262,246)"/><rect x="258" y="250" width="8" height="8" transform="rotate(0,262,254)"/><rect x="258" y="258" width="8" height="8" transform="rotate(0,262,262)"/><rect x="258" y="266" width="8" height="8" transform="rotate(0,262,270)"/><rect x="266" y="66" width="8" height="8" transform="rotate(0,270,70)"/><rect x="266" y="90" width="8" height="8" transform="rotate(0,270,94)"/><rect x="266" y="98" width="8" height="8" transform="rotate(0,270,102)"/><rect x="266" y="106" width="8" height="8" transform="rotate(0,270,110)"/><rect x="266" y="114" width="8" height="8" transform="rotate(0,270,118)"/><rect x="266" y="146" width="8" height="8" transform="rotate(0,270,150)"/><rect x="266" y="154" width="8" height="8" transform="rotate(0,270,158)"/><rect x="266" y="162" width="8" height="8" transform="rotate(0,270,166)"/><rect x="266" y="170" width="8" height="8" transform="rotate(0,270,174)"/><rect x="266" y="178" width="8" height="8" transform="rotate(0,270,182)"/><rect x="266" y="186" width="8" height="8" transform="rotate(0,270,190)"/><rect x="266" y="202" width="8" height="8" transform="rotate(0,270,206)"/><rect x="266" y="210" width="8" height="8" transform="rotate(0,270,214)"/><rect x="266" y="226" width="8" height="8" transform="rotate(0,270,230)"/><rect x="266" y="234" width="8" height="8" transform="rotate(0,270,238)"/><rect x="266" y="250" width="8" height="8" transform="rotate(0,270,254)"/><rect x="266" y="258" width="8" height="8" transform="rotate(0,270,262)"/><rect x="266" y="290" width="8" height="8" transform="rotate(0,270,294)"/><rect x="274" y="74" width="8" height="8" transform="rotate(0,278,78)"/><rect x="274" y="98" width="8" height="8" transform="rotate(0,278,102)"/><rect x="274" y="106" width="8" height="8" transform="rotate(0,278,110)"/><rect x="274" y="122" width="8" height="8" transform="rotate(0,278,126)"/><rect x="274" y="146" width="8" height="8" transform="rotate(0,278,150)"/><rect x="274" y="162" width="8" height="8" transform="rotate(0,278,166)"/><rect x="274" y="170" width="8" height="8" transform="rotate(0,278,174)"/><rect x="274" y="202" width="8" height="8" transform="rotate(0,278,206)"/><rect x="274" y="210" width="8" height="8" transform="rotate(0,278,214)"/><rect x="274" y="234" width="8" height="8" transform="rotate(0,278,238)"/><rect x="274" y="258" width="8" height="8" transform="rotate(0,278,262)"/><rect x="274" y="266" width="8" height="8" transform="rotate(0,278,270)"/><rect x="274" y="274" width="8" height="8" transform="rotate(0,278,278)"/><rect x="274" y="290" width="8" height="8" transform="rotate(0,278,294)"/><rect x="282" y="66" width="8" height="8" transform="rotate(0,286,70)"/><rect x="282" y="74" width="8" height="8" transform="rotate(0,286,78)"/><rect x="282" y="82" width="8" height="8" transform="rotate(0,286,86)"/><rect x="282" y="114" width="8" height="8" transform="rotate(0,286,118)"/><rect x="282" y="122" width="8" height="8" transform="rotate(0,286,126)"/><rect x="282" y="138" width="8" height="8" transform="rotate(0,286,142)"/><rect x="282" y="146" width="8" height="8" transform="rotate(0,286,150)"/><rect x="282" y="170" width="8" height="8" transform="rotate(0,286,174)"/><rect x="282" y="202" width="8" height="8" transform="rotate(0,286,206)"/><rect x="282" y="218" width="8" height="8" transform="rotate(0,286,222)"/><rect x="282" y="226" width="8" height="8" transform="rotate(0,286,230)"/><rect x="282" y="234" width="8" height="8" transform="rotate(0,286,238)"/><rect x="282" y="242" width="8" height="8" transform="rotate(0,286,246)"/><rect x="282" y="250" width="8" height="8" transform="rotate(0,286,254)"/><rect x="290" y="90" width="8" height="8" transform="rotate(0,294,94)"/><rect x="290" y="98" width="8" height="8" transform="rotate(0,294,102)"/><rect x="290" y="106" width="8" height="8" transform="rotate(0,294,110)"/><rect x="290" y="130" width="8" height="8" transform="rotate(0,294,134)"/><rect x="290" y="146" width="8" height="8" transform="rotate(0,294,150)"/><rect x="290" y="154" width="8" height="8" transform="rotate(0,294,158)"/><rect x="290" y="170" width="8" height="8" transform="rotate(0,294,174)"/><rect x="290" y="202" width="8" height="8" transform="rotate(0,294,206)"/><rect x="290" y="218" width="8" height="8" transform="rotate(0,294,222)"/><rect x="290" y="226" width="8" height="8" transform="rotate(0,294,230)"/><rect x="290" y="242" width="8" height="8" transform="rotate(0,294,246)"/><rect x="290" y="250" width="8" height="8" transform="rotate(0,294,254)"/><rect x="290" y="258" width="8" height="8" transform="rotate(0,294,262)"/><rect x="290" y="282" width="8" height="8" transform="rotate(0,294,286)"/><rect x="290" y="290" width="8" height="8" transform="rotate(0,294,294)"/><path clip-rule="evenodd" d="M 2 2v 56h 56v -56zM 10 10h 40v 40h -40z" transform="rotate(0,30,30)"/><rect x="18" y="18" width="8" height="8" transform="rotate(0,22,22)"/><rect x="18" y="26" width="8" height="8" transform="rotate(0,22,30)"/><rect x="18" y="34" width="8" height="8" transform="rotate(0,22,38)"/><rect x="26" y="18" width="8" height="8" transform="rotate(0,30,22)"/><rect x="26" y="26" width="8" height="8" transform="rotate(0,30,30)"/><rect x="26" y="34" width="8" height="8" transform="rotate(0,30,38)"/><rect x="34" y="18" width="8" height="8" transform="rotate(0,38,22)"/><rect x="34" y="26" width="8" height="8" transform="rotate(0,38,30)"/><rect x="34" y="34" width="8" height="8" transform="rotate(0,38,38)"/><path clip-rule="evenodd" d="M 242 2v 56h 56v -56zM 250 10h 40v 40h -40z" transform="rotate(90,270,30)"/><rect x="258" y="18" width="8" height="8" transform="rotate(0,262,22)"/><rect x="258" y="26" width="8" height="8" transform="rotate(0,262,30)"/><rect x="258" y="34" width="8" height="8" transform="rotate(0,262,38)"/><rect x="266" y="18" width="8" height="8" transform="rotate(0,270,22)"/><rect x="266" y="26" width="8" height="8" transform="rotate(0,270,30)"/><rect x="266" y="34" width="8" height="8" transform="rotate(0,270,38)"/><rect x="274" y="18" width="8" height="8" transform="rotate(0,278,22)"/><rect x="274" y="26" width="8" height="8" transform="rotate(0,278,30)"/><rect x="274" y="34" width="8" height="8" transform="rotate(0,278,38)"/><path clip-rule="evenodd" d="M 2 242v 56h 56v -56zM 10 250h 40v 40h -40z" transform="rotate(-90,30,270)"/><rect x="18" y="258" width="8" height="8" transform="rotate(0,22,262)"/><rect x="18" y="266" width="8" height="8" transform="rotate(0,22,270)"/><rect x="18" y="274" width="8" height="8" transform="rotate(0,22,278)"/><rect x="26" y="258" width="8" height="8" transform="rotate(0,30,262)"/><rect x="26" y="266" width="8" height="8" transform="rotate(0,30,270)"/><rect x="26" y="274" width="8" height="8" transform="rotate(0,30,278)"/><rect x="34" y="258" width="8" height="8" transform="rotate(0,38,262)"/><rect x="34" y="266" width="8" height="8" transform="rotate(0,38,270)"/><rect x="34" y="274" width="8" height="8" transform="rotate(0,38,278)"/></clipPath></defs><rect x="0" y="0" height="300" width="300" clip-path="url('#clip-path-background-color')" fill="#fff"/><rect x="0" y="0" height="300" width="300" clip-path="url('#clip-path-dot-color')" fill="#000000"/></svg>